PathFileType	4	(X/Y/Z)	/Users/itak/Documents/Research/Walk-IL/dataset/trc/00098_00007.trc
DataRate	CameraRate	NumFrames	NumMarkers	Units	OrigDataRate	OrigDataStartFrame	OrigNumFrames
100.000000	100.000000	4	53	mm	100.000000	486	556
Frame#	Time	RPSI			LPSI			L3			STRN			T10			C7			CLAV			RBAK			LBAK			LSHO			LUPA			LAEL			LAOL			LWTS			LWPS			LFRA			LIFD			LHPS			LHTS			RSHO			RUPA			RAEL			RAOL			RWTS			RWPS			RFRA			RIFD			RHTS			RHPS			RBHD			LFHD			RFHD			LBHD			LHIP			RHIP			RASI			LASI			LKNE			LTHI			LANK			LTIP			LTOE			LMT1			LMT5			LHEE			RKNE			RTHI			RANK			RTIP			RTOE			RMT1			RMT5			RHEE			
		X1	Y1	Z1	X2	Y2	Z2	X3	Y3	Z3	X4	Y4	Z4	X5	Y5	Z5	X6	Y6	Z6	X7	Y7	Z7	X8	Y8	Z8	X9	Y9	Z9	X10	Y10	Z10	X11	Y11	Z11	X12	Y12	Z12	X13	Y13	Z13	X14	Y14	Z14	X15	Y15	Z15	X16	Y16	Z16	X17	Y17	Z17	X18	Y18	Z18	X19	Y19	Z19	X20	Y20	Z20	X21	Y21	Z21	X22	Y22	Z22	X23	Y23	Z23	X24	Y24	Z24	X25	Y25	Z25	X26	Y26	Z26	X27	Y27	Z27	X28	Y28	Z28	X29	Y29	Z29	X30	Y30	Z30	X31	Y31	Z31	X32	Y32	Z32	X33	Y33	Z33	X34	Y34	Z34	X35	Y35	Z35	X36	Y36	Z36	X37	Y37	Z37	X38	Y38	Z38	X39	Y39	Z39	X40	Y40	Z40	X41	Y41	Z41	X42	Y42	Z42	X43	Y43	Z43	X44	Y44	Z44	X45	Y45	Z45	X46	Y46	Z46	X47	Y47	Z47	X48	Y48	Z48	X49	Y49	Z49	X50	Y50	Z50	X51	Y51	Z51	X52	Y52	Z52	X53	Y53	Z53	

487	4.86	557.3110961914062	1122.308227539062	-295.2577819824219	562.483642578125	1123.285766601562	-430.4578857421875	553.4213256835938	1155.716186523438	-365.56591796875	763.0222778320312	1363.8125	-358.3818664550781	508.7406616210938	1301.317260742188	-369.5687866210938	530.9833984375	1594.75244140625	-385.9861450195312	719.778076171875	1496.5537109375	-365.398681640625	481.1475524902344	1408.198364257812	-298.5627746582031	530.0503540039062	1574.115356445312	-487.6740112304688	622.59423828125	1564.443725585938	-549.08203125	618.0078125	1432.625244140625	-620.6039428710938	661.6156005859375	1216.265869140625	-639.9027099609375	588.9260864257812	1194.699096679688	-594.4026489257812	798.5579223632812	984.527099609375	-572.4684448242188	729.0833129882812	941.4103393554688	-611.0900268554688	697.7053833007812	1104.469482421875	-637.6847534179688	842.7789306640625	797.113525390625	-538.1751708984375	772.1653442382812	873.790771484375	-603.9649658203125	831.8184814453125	898.3527221679688	-576.3147583007812	578.425537109375	1579.987426757812	-200.3704528808594	562.3977661132812	1505.964599609375	-137.6933288574219	561.0581665039062	1212.40087890625	-115.3866729736328	559.0965576171875	1210.7119140625	-211.8555755615234	692.2271118164062	962.5606079101562	-121.2090911865234	615.3041381835938	951.0208129882812	-94.75630950927734	582.0061645507812	1139.685668945312	-99.42132568359375	701.3155517578125	766.0249633789062	-140.4574127197266	711.9959106445312	851.070068359375	-116.6417083740234	643.9411010742188	848.7572021484375	-90.40082550048828	564.922119140625	1773.78759765625	-306.5831298828125	727.9797973632812	1834.067626953125	-441.90283203125	726.6089477539062	1845.725219726562	-312.3749694824219	556.4826049804688	1765.98193359375	-441.4779357910156	661.7280883789062	1035.881958007812	-533.019775390625	683.1211547851562	1028.907958984375	-173.3700866699219	763.608642578125	1105.711059570312	-224.7077941894531	765.37109375	1104.922485351562	-490.0597229003906	667.9426879882812	535.9635009765625	-498.1036987304688	652.146240234375	680.8577880859375	-528.1533813476562	538.1732177734375	33.92124557495117	-485.5758666992188	556.7802734375	291.1556396484375	-523.6162719726562	768.0211791992188	36.32513809204102	-423.5674743652344	686.6946411132812	41.77857208251953	-391.9635620117188	664.0214233398438	31.51216697692871	-509.7679443359375	468.2154235839844	38.26456069946289	-425.2731323242188	657.6072387695312	537.473876953125	-223.8098602294922	695.327392578125	815.7495727539062	-186.4872589111328	531.4866333007812	30.91208457946777	-253.8912353515625	623.7166137695312	404.4839477539062	-216.7884216308594	765.0673217773438	37.7726936340332	-314.0379028320312	699.4200439453125	31.09239959716797	-352.3460083007812	666.6453247070312	38.14938735961914	-234.6141204833984	473.683349609375	35.23686981201172	-300.9365844726562	
488	4.87	558.3134765625	1122.451782226562	-295.8944702148438	563.239990234375	1123.409301757812	-431.0977783203125	554.35986328125	1155.912963867188	-366.2113647460938	764.1497192382812	1363.632080078125	-359.2181396484375	509.8390808105469	1301.475341796875	-370.1949462890625	532.3123168945312	1594.837890625	-386.6021118164062	721.0140991210938	1496.448486328125	-366.0336303710938	482.2260131835938	1408.198852539062	-299.4909362792969	531.42724609375	1574.328857421875	-488.3149108886719	624.0007934570312	1564.680541992188	-549.6859130859375	619.3331298828125	1432.846069335938	-621.2528686523438	662.8484497070312	1216.436279296875	-640.4580688476562	590.0706176757812	1194.926879882812	-595.0684204101562	799.5422973632812	984.648681640625	-572.6665649414062	730.1248779296875	941.5297241210938	-611.3922119140625	698.868408203125	1104.618408203125	-638.1588745117188	843.66064453125	797.2605590820312	-538.162353515625	773.189453125	873.9235229492188	-604.1748657226562	832.8237915039062	898.5027465820312	-576.4552612304688	579.55615234375	1579.717529296875	-200.9886627197266	563.2404174804688	1505.689331054688	-138.458251953125	560.790771484375	1212.183715820312	-116.3836364746094	559.3195190429688	1210.562133789062	-212.8567047119141	691.3284912109375	962.0466918945312	-121.6850433349609	614.2490234375	950.6477661132812	-95.68246459960938	581.4837646484375	1139.402221679688	-100.3359069824219	700.2877197265625	765.5010375976562	-140.7375335693359	710.9022827148438	850.531494140625	-116.9143142700195	642.657958984375	848.338623046875	-91.12225341796875	565.9607543945312	1773.473022460938	-306.7684631347656	728.866455078125	1834.460205078125	-441.9404296875	727.488037109375	1845.840698242188	-312.4031982421875	557.5457153320312	1765.944580078125	-441.66650390625	662.0945434570312	1035.746459960938	-533.833984375	684.341064453125	1028.903930664062	-174.1738433837891	764.7382202148438	1105.547119140625	-225.7620239257812	766.0380249023438	1104.717651367188	-491.1250915527344	667.4515380859375	535.8792114257812	-498.6781311035156	651.785888671875	680.7732543945312	-528.8538208007812	538.175537109375	33.91783142089844	-485.5753479003906	556.4661865234375	291.1605529785156	-523.9063110351562	768.0191650390625	36.34195709228516	-423.5958251953125	686.7044067382812	41.80877685546875	-391.9759521484375	664.0099487304688	31.48870277404785	-509.7845458984375	468.2228698730469	38.28546905517578	-425.2613220214844	658.0779418945312	537.498291015625	-224.2814331054688	696.1588745117188	815.6844482421875	-187.2618103027344	531.4714965820312	30.96078491210938	-253.8880920410156	624.0548095703125	404.6565246582031	-217.2101287841797	765.0462646484375	37.79480743408203	-314.0319519042969	699.41162109375	31.09734153747559	-352.3382873535156	666.6363525390625	38.16204833984375	-234.6023406982422	473.6531372070312	35.28136444091797	-300.9388427734375	
489	4.88	559.240478515625	1122.591796875	-296.5196228027344	563.9474487304688	1123.529418945312	-431.7245483398438	555.2047729492188	1156.101684570312	-366.8468933105469	765.2152709960938	1363.486206054688	-360.0626220703125	510.8836669921875	1301.67236328125	-370.8018798828125	533.6102294921875	1594.958862304688	-387.2018737792969	722.2044677734375	1496.3779296875	-366.6787109375	483.2776184082031	1408.258178710938	-300.3776550292969	532.760009765625	1574.575439453125	-488.9361572265625	625.35595703125	1564.964599609375	-550.2822875976562	620.6018676757812	1433.10595703125	-621.888427734375	664.0381469726562	1216.647827148438	-640.9805908203125	591.1705932617188	1195.207641601562	-595.70751953125	800.3191528320312	984.6688842773438	-572.8668212890625	730.9346923828125	941.6409912109375	-611.721435546875	699.9376220703125	1104.788696289062	-638.6112670898438	844.1511840820312	797.2528076171875	-538.1917114257812	773.9104614257812	873.9948120117188	-604.4022827148438	833.557861328125	898.5422973632812	-576.6190185546875	580.7008666992188	1579.509765625	-201.6073455810547	564.1234130859375	1505.486083984375	-139.1963500976562	560.5825805664062	1212.038208007812	-117.3311538696289	559.5690307617188	1210.473876953125	-213.8020629882812	690.6444702148438	961.682373046875	-122.1927795410156	613.4572143554688	950.3646850585938	-96.56356811523438	581.0716552734375	1139.190307617188	-101.2063674926758	699.6053466796875	765.1309204101562	-141.0634155273438	710.091796875	850.156005859375	-117.2460021972656	641.7100830078125	848.0277099609375	-91.83232879638672	567.0044555664062	1773.181274414062	-306.9367980957031	729.7562866210938	1834.8857421875	-441.9646911621094	728.3671264648438	1845.962158203125	-312.4140625	558.5997314453125	1765.94970703125	-441.8421630859375	662.3497314453125	1035.6455078125	-534.6185913085938	685.4810791015625	1028.916870117188	-174.9526977539062	765.7772216796875	1105.410400390625	-226.7858123779297	766.6372680664062	1104.553833007812	-492.1702270507812	667.1686401367188	535.7949829101562	-499.2124328613281	651.5928344726562	680.7036743164062	-529.5050048828125	538.184326171875	33.92843627929688	-485.5724792480469	556.2874145507812	291.1493225097656	-524.1697998046875	768.02587890625	36.34865188598633	-423.6199951171875	686.7266235351562	41.83916091918945	-391.9884338378906	664.0039672851562	31.4697151184082	-509.8019409179688	468.2410888671875	38.32703399658203	-425.2529296875	658.5689697265625	537.5424194335938	-224.7414245605469	697.0090942382812	815.6828002929688	-188.0313110351562	531.46435546875	31.027587890625	-253.8793334960938	624.4277954101562	404.8665161132812	-217.654541015625	765.0313720703125	37.81071090698242	-314.0284729003906	699.4052124023438	31.10038185119629	-352.3319396972656	666.6341552734375	38.17548370361328	-234.5900726318359	473.6296081542969	35.34986877441406	-300.9350280761719	
490	4.89	560.0884399414062	1122.718139648438	-297.1422729492188	564.609619140625	1123.638061523438	-432.3455200195312	555.964111328125	1156.266723632812	-367.4790954589844	766.2183227539062	1363.365112304688	-360.9048461914062	511.8729858398438	1301.898071289062	-371.3992614746094	534.876708984375	1595.10498046875	-387.7847290039062	723.3457641601562	1496.329345703125	-367.3320617675781	484.3031921386719	1408.365234375	-301.2158203125	534.0411376953125	1574.840087890625	-489.5383911132812	626.652587890625	1565.272216796875	-550.8712768554688	621.8145751953125	1433.3896484375	-622.5108642578125	665.1829833984375	1216.88134765625	-641.4744873046875	592.2203979492188	1195.519287109375	-596.328125	800.8973388671875	984.580810546875	-573.0739135742188	731.5272827148438	941.7376098632812	-612.0853271484375	700.912353515625	1104.963256835938	-639.0420532226562	844.2747802734375	797.0886840820312	-538.270263671875	774.3443603515625	873.9960327148438	-604.64990234375	834.031982421875	898.46630859375	-576.8060302734375	581.860595703125	1579.357177734375	-202.2226257324219	565.0543212890625	1505.34814453125	-139.9002990722656	560.4561157226562	1211.95458984375	-118.2242050170898	559.8589477539062	1210.435546875	-214.6872253417969	690.1856689453125	961.4467163085938	-122.729606628418	612.9361572265625	950.1622924804688	-97.3958740234375	580.7820434570312	1139.040771484375	-102.0338363647461	699.237060546875	764.8944702148438	-141.4577941894531	709.5608520507812	849.9197998046875	-117.647346496582	641.0942993164062	847.8086547851562	-92.53665924072266	568.0538940429688	1772.899169921875	-307.0923767089844	730.6475830078125	1835.336547851562	-441.9766235351562	729.245361328125	1846.078979492188	-312.407470703125	559.6458740234375	1765.98779296875	-442.0086364746094	662.5294189453125	1035.56787109375	-535.37939453125	686.5253295898438	1028.93701171875	-175.7120819091797	766.719482421875	1105.29296875	-227.7726745605469	767.1829223632812	1104.426147460938	-493.1869506835938	667.0717163085938	535.712890625	-499.7095947265625	651.5560913085938	680.6473999023438	-530.1104736328125	538.1963500976562	33.94661331176758	-485.5675659179688	556.2244262695312	291.11865234375	-524.4088134765625	768.0390014648438	36.34529113769531	-423.6392211914062	686.7560424804688	41.86764144897461	-392.0004577636719	664.0023193359375	31.45318794250488	-509.8196716308594	468.2679748535156	38.38426208496094	-425.2511901855469	659.0693969726562	537.5882568359375	-225.1937561035156	697.8837280273438	815.7410888671875	-188.8054656982422	531.4630737304688	31.10738945007324	-253.8680572509766	624.8322143554688	405.0873107910156	-218.1128997802734	765.0228881835938	37.81926727294922	-314.0271606445312	699.4012451171875	31.10089492797852	-352.3285522460938	666.6381225585938	38.18870162963867	-234.5803833007812	473.6143493652344	35.43418121337891	-300.9266052246094	
